<svg width="125" height="183" viewBox="0 0 125 183" fill="none" xmlns="http://www.w3.org/2000/svg">
<path d="M42.4961 87.9806H78.8974L124.403 0H88.0013L42.4961 87.9806Z" fill="#006CA2"/>
<path d="M65.2248 43.9854L47.0312 79.1918L51.5832 87.9827H78.8807L83.4326 79.1918L65.2248 43.9854Z" fill="#2F2F2F"/>
<path d="M81.7787 109.223H45.3773V87.9857H81.7787V109.223ZM81.7787 78.8818H45.3773C42.9628 78.8818 40.6472 79.841 38.9399 81.5483C37.2326 83.2556 36.2734 85.5712 36.2734 87.9857V109.223C36.2734 114.259 40.3417 118.327 45.3773 118.327H81.7787C86.8143 118.327 90.8826 114.259 90.8826 109.223V87.9857C90.8826 82.9501 86.8143 78.8818 81.7787 78.8818Z" fill="#F79329"/>
<path d="M109.104 136.51C109.104 161.645 88.7343 182.015 63.599 182.015C38.4637 182.015 18.0938 161.645 18.0938 136.51C18.0938 111.375 38.4637 91.0049 63.599 91.0049C88.7343 91.0049 109.104 111.389 109.104 136.51Z" fill="#F79329"/>
<path d="M33.0784 125.452C32.481 125.452 31.8836 125.338 31.3146 125.082C29.1239 124.143 28.0713 121.597 28.9248 119.378C28.939 119.335 28.9532 119.307 28.9675 119.278C28.9817 119.207 28.9817 119.222 29.0244 119.165C31.016 114.433 34.1022 110.242 38.0292 106.936C41.9562 103.629 46.6118 101.302 51.6134 100.146C52.1113 100.032 52.6376 100.274 52.8652 100.743C53.0928 101.213 52.9648 101.782 52.5522 102.109C45.9092 107.386 40.6034 114.513 37.2036 122.692C37.2036 122.707 37.1894 122.721 37.1894 122.721C37.1894 122.735 37.1894 122.735 37.1752 122.749C36.7058 123.845 35.8381 124.698 34.7285 125.125C34.2022 125.352 33.6332 125.452 33.0784 125.452Z" fill="white"/>
<path d="M81.9066 87.9806H45.5052L0 0H36.4013L81.9066 87.9806Z" fill="#006CA2"/>
<path d="M63.1744 159.107H63.402C65.9767 159.065 70.8558 158.496 74.5827 155.153C77.6837 152.365 79.1204 148.552 78.5372 144.683C77.9825 141.084 75.7207 138.026 72.2641 136.134C75.5785 133.645 77.5699 130.53 77.9113 127.286C78.2527 124.143 77.0152 121.013 74.3551 118.225C71.6809 115.423 68.0678 113.943 63.9283 113.943C57.5414 113.943 51.6665 117.315 49.8884 119.761C49.7319 119.96 49.7319 120.245 49.8742 120.473L53.8429 126.205C53.9425 126.347 54.0847 126.447 54.2554 126.461C54.4119 126.49 54.5968 126.447 54.7249 126.333C54.7675 126.305 59.0777 122.763 62.7619 122.763C64.4404 122.763 65.678 123.502 66.5599 125.01C67.2854 126.276 67.4276 127.429 66.9867 128.538C65.7775 131.525 60.6566 133.047 60.6139 133.062C60.3579 133.133 60.173 133.374 60.173 133.645V138.695C60.173 138.979 60.3579 139.221 60.6424 139.278C60.6993 139.292 65.5642 140.501 66.6737 143.289C67.1147 144.385 66.8871 145.622 66.0194 146.973C65.0948 148.396 63.7007 149.121 61.8657 149.121C58.3095 149.121 53.9567 146.419 52.0506 144.726C51.987 144.669 51.9126 144.627 51.8319 144.6C51.7512 144.573 51.6659 144.562 51.5812 144.569C51.3962 144.584 51.254 144.683 51.1544 144.825L47.1857 150.558C47.0292 150.786 47.0435 151.084 47.2284 151.298C47.4702 151.625 53.9567 159.107 63.1744 159.107Z" fill="#AE3D09"/>
</svg>
