<svg width="38" height="38" viewBox="0 0 38 38" fill="none" xmlns="http://www.w3.org/2000/svg">
<path d="M4.7942 0.789183L19 14.9945L33.1473 0.847641C33.3953 0.583754 33.6939 0.372654 34.0254 0.226999C34.3569 0.0813434 34.7145 0.00413399 35.0765 0C35.8518 0 36.5952 0.307947 37.1434 0.856097C37.6916 1.40425 37.9995 2.1477 37.9995 2.9229C38.0063 3.28125 37.9399 3.63722 37.8041 3.96895C37.6684 4.30068 37.4664 4.60119 37.2103 4.85201L22.9168 18.9988L37.2103 33.2918C37.6921 33.7631 37.9746 34.4013 37.9995 35.0748C37.9995 35.85 37.6916 36.5934 37.1434 37.1416C36.5952 37.6897 35.8518 37.9977 35.0765 37.9977C34.704 38.0131 34.3323 37.951 33.9851 37.8151C33.6379 37.6792 33.3228 37.4727 33.0597 37.2085L19 23.0032L4.82343 37.1793C4.57645 37.4344 4.2814 37.638 3.95531 37.7785C3.62921 37.919 3.27852 37.9935 2.92348 37.9977C2.14825 37.9977 1.40477 37.6897 0.856604 37.1416C0.308434 36.5934 0.00047559 35.85 0.00047559 35.0748C-0.00633938 34.7164 0.0601503 34.3605 0.195864 34.0287C0.331578 33.697 0.533652 33.3965 0.789687 33.1457L15.0832 18.9988L0.789687 4.70587C0.307932 4.23458 0.0254369 3.59637 0.00047559 2.9229C0.00047559 2.1477 0.308434 1.40425 0.856604 0.856097C1.40477 0.307947 2.14825 0 2.92348 0C3.625 0.0087687 4.29729 0.29229 4.7942 0.789183Z" fill="black" fill-opacity="0.46"/>
</svg>
