<svg width="60" height="60" viewBox="0 0 60 60" fill="none" xmlns="http://www.w3.org/2000/svg">
<path d="M36.3211 46.875H24.172C23.4961 46.875 23.4961 47.5078 23.4961 47.5078C23.4961 50.0372 26.873 51.3019 30.247 51.3019C33.6211 51.3019 36.9961 50.0372 36.9961 47.5078C36.997 47.5078 36.997 46.875 36.3211 46.875Z" fill="#5BBD70"/>
<path d="M30.246 44.6627C33.381 44.6618 34.9485 42.4502 33.381 42.4502H27.111C25.5435 42.4502 27.111 44.6627 30.246 44.6627Z" fill="#5BBD70"/>
<path d="M29.9925 18.4135C37.3556 18.4135 42.9928 18.0141 47.3297 17.4151C42.7519 8.67196 48.9 -0.918668 43.0003 2.63539C38.1591 5.55383 33.3928 6.31789 29.9925 6.31789C26.5922 6.31789 21.8297 5.55571 16.9847 2.63539C11.0859 -0.918668 17.2331 8.67196 12.6562 17.4151C16.9922 18.0141 22.6294 18.4135 29.9925 18.4135Z" fill="#5BBD70"/>
<path d="M58.125 25.8743C58.125 24.7099 57.7116 25.3128 49.5609 20.5953L49.5413 20.5728C49.1194 20.6384 38.8106 22.2574 29.9981 22.2574C21.1856 22.2574 10.8787 20.6384 10.4569 20.5728L10.4372 20.5953C2.28656 25.3128 1.875 24.709 1.875 25.8743C1.875 26.2418 2.00063 28.3062 7.51875 29.9749C5.40375 34.7937 6.94312 40.4374 11.2275 43.5678L10.5609 44.7059L9.60094 44.1593L5.07 51.8759C4.64906 51.7474 4.34156 51.7212 4.25812 51.8628L4.00969 52.2846C3.60656 52.9699 9.07781 56.0787 9.48094 55.3915L9.72844 54.9715C9.81187 54.8281 9.63281 54.5787 9.30938 54.2834L13.6106 46.9549C15.5062 51.3471 19.2141 54.4878 25.7288 57.3687C26.8172 57.8496 28.4634 58.1253 30.2437 58.1253C32.0241 58.1253 33.6694 57.8496 34.7588 57.3678C43.0791 53.6862 47.0034 49.3953 48.1191 42.6753C50.1187 42.3312 52.1794 41.0599 52.1794 37.2893C52.1794 33.8684 50.8097 32.8278 49.6425 32.5615C49.619 31.9415 49.589 31.3218 49.5525 30.7024C57.96 28.9746 58.125 26.2981 58.125 25.8743ZM9.52875 30.5037C10.8122 30.7981 12.3178 31.0709 14.0662 31.3071C12.9384 32.0449 12.1875 33.1606 12.1875 34.6493C12.7556 33.2515 14.07 32.3196 15.6375 31.8631C15.0986 32.5308 14.8027 33.3619 14.7984 34.2199C14.7984 36.349 16.5525 38.0731 18.7153 38.0731C20.88 38.0731 22.6341 36.3481 22.6341 34.2199C22.6341 33.7484 22.5356 33.3021 22.3781 32.8831C23.2744 33.5234 23.9972 34.3849 24.3759 35.5043C24.3759 34.039 23.8153 32.8906 22.9397 32.044C24.3084 32.1021 25.7644 32.1424 27.3159 32.1649C27.6198 33.3332 27.6901 34.5499 27.5228 35.7454C27.3555 36.9409 26.9539 38.0916 26.3409 39.1315C23.7188 43.5978 17.9128 45.1287 13.3734 42.5496C9.07031 40.1037 7.455 34.8481 9.52875 30.5037ZM12.8775 46.0221L13.11 45.6265C13.1841 45.8506 13.2638 46.0718 13.3463 46.2893L12.8775 46.0221ZM50.3044 37.2893C50.3044 39.6574 49.3556 40.7796 47.2303 40.9268L46.4672 40.9793L46.3678 41.7265C45.4978 48.2178 42.0272 52.1309 33.9909 55.6868C33.1472 56.059 31.7466 56.2821 30.2447 56.2821C28.7428 56.2821 27.3422 56.0599 26.4984 55.6868C20.0588 52.8387 16.6069 49.7684 15.0122 45.3846C19.9697 46.7543 25.425 44.7312 28.1203 40.1412C29.5313 37.7427 29.9941 34.9033 29.4178 32.1809C29.6147 32.1818 29.7994 32.1846 29.9991 32.1846C32.3503 32.1846 34.4888 32.1415 36.4631 32.0665C35.0372 32.7771 33.9947 34.0493 33.9947 35.9084C34.3219 34.9437 34.9434 34.2031 35.7159 33.6509C35.5724 34.0182 35.4974 34.4087 35.4947 34.8031C35.4947 36.6359 37.0069 38.1218 38.8697 38.1218C40.7353 38.1218 42.2447 36.6359 42.2447 34.8031C42.2447 34.0343 41.9681 33.3359 41.5228 32.7734C42.8728 33.1662 44.0053 33.9678 44.4947 35.1724C44.4947 33.4465 43.3209 32.3009 41.7609 31.7562C42.9719 31.6576 44.1806 31.5329 45.3862 31.3821C45.4275 31.8912 45.4688 32.4284 45.51 33.0115C45.5859 35.0562 45.3731 36.5431 45.3713 36.5571L45.1116 38.3299L46.7297 37.5087C46.8431 37.4506 47.8566 36.9153 48.3994 35.9281C48.5991 35.5634 48.7669 35.0356 48.9094 34.3268H48.9131C49.8356 34.3249 50.3044 35.3234 50.3044 37.2893Z" fill="#5BBD70"/>
</svg>
