<svg width="23" height="23" viewBox="0 0 23 23" fill="none" xmlns="http://www.w3.org/2000/svg">
<path d="M21.9219 0.172012H1.07813C0.576855 0.172012 0.171875 0.576993 0.171875 1.07826V21.922C0.171875 22.4233 0.576855 22.8283 1.07813 22.8283H21.9219C22.4231 22.8283 22.8281 22.4233 22.8281 21.922V1.07826C22.8281 0.576993 22.4231 0.172012 21.9219 0.172012ZM19.3051 6.78481H17.4954C16.0766 6.78481 15.8019 7.45883 15.8019 8.45004V10.6335H19.189L18.7472 14.0518H15.8019V22.8283H12.2703V14.0546H9.3165V10.6335H12.2703V8.11303C12.2703 5.18754 14.0573 3.59311 16.6685 3.59311C17.9202 3.59311 18.9936 3.68656 19.3079 3.72904V6.78481H19.3051Z" fill="#5BBD70"/>
</svg>
