<svg width="124" height="182" viewBox="0 0 124 182" fill="none" xmlns="http://www.w3.org/2000/svg">
<path d="M42.3398 87.7042H78.6303L124 0H87.71L42.3398 87.7042Z" fill="#006CA2"/>
<path d="M65.0085 43.8467L46.8633 78.9312L51.4031 87.6988H78.6139L83.1537 78.9312L65.0085 43.8467Z" fill="#2F2F2F"/>
<path d="M81.5459 108.885H45.2555V87.7042H81.5459V108.885ZM81.5459 78.6387H45.2555C42.8474 78.6387 40.5379 79.5953 38.8352 81.2981C37.1324 83.0008 36.1758 85.3103 36.1758 87.7184V108.885C36.1758 111.294 37.1324 113.603 38.8352 115.306C40.5379 117.009 42.8474 117.965 45.2555 117.965H81.5459C86.5539 117.965 90.6114 113.908 90.6114 108.885V87.7042C90.6114 82.6962 86.5539 78.6387 81.5459 78.6387Z" fill="#FCC21B"/>
<path d="M108.74 136.101C108.74 161.155 88.4244 181.471 63.3701 181.471C38.3158 181.471 18 161.169 18 136.101C18 111.032 38.3158 90.7305 63.3701 90.7305C88.4386 90.7305 108.74 111.046 108.74 136.101Z" fill="#FCC21B"/>
<path d="M32.9885 125.06C32.3926 125.06 31.7968 124.946 31.2293 124.691C29.0445 123.755 27.9947 121.215 28.8459 119.016C28.8601 118.988 28.8743 118.945 28.8743 118.917C28.8884 118.846 28.9026 118.86 28.931 118.803C32.9459 109.241 41.3588 102.176 51.46 99.8354C51.9566 99.7219 52.4815 99.9631 52.7085 100.431C52.9355 100.899 52.8078 101.467 52.3964 101.793C45.771 107.057 40.4792 114.15 37.1027 122.322C37.1027 122.336 37.0885 122.35 37.0885 122.35C37.0885 122.35 37.0885 122.364 37.0744 122.364C36.6062 123.457 35.7408 124.308 34.6342 124.734C34.1093 124.961 33.5418 125.06 32.9885 125.06Z" fill="white"/>
<path d="M81.6606 87.7042H45.3559L0 0H36.2904L81.6606 87.7042Z" fill="#006CA2"/>
<path d="M54.586 126.844L58.7996 125.639V148.778H55.5507C55.196 148.778 54.9265 149.061 54.9265 149.402V157.318C54.9265 157.659 55.196 157.942 55.5507 157.942H72.3624C72.7028 157.942 72.9866 157.659 72.9866 157.318V149.402C72.9866 149.061 72.7028 148.778 72.3624 148.778H69.1135V114.885C69.1135 114.7 69.0284 114.516 68.8723 114.402C68.7997 114.344 68.715 114.302 68.6242 114.28C68.5335 114.258 68.4389 114.256 68.3474 114.275L54.2739 117.297C53.9901 117.368 53.7773 117.609 53.7773 117.907V126.249C53.7773 126.433 53.8625 126.632 54.0185 126.745C54.203 126.859 54.4016 126.887 54.586 126.844Z" fill="#F79329"/>
</svg>
