<svg width="62" height="62" viewBox="0 0 62 62" fill="none" xmlns="http://www.w3.org/2000/svg">
<path d="M37.7835 33.8656H24.221C23.461 33.8656 22.7322 33.5637 22.1948 33.0263C21.6574 32.4889 21.3555 31.7601 21.3555 31.0001C21.3555 30.2401 21.6574 29.5112 22.1948 28.9738C22.7322 28.4364 23.461 28.1345 24.221 28.1345H37.7835C38.5435 28.1345 39.2724 28.4364 39.8098 28.9738C40.3472 29.5112 40.6491 30.2401 40.6491 31.0001C40.6491 31.7601 40.3472 32.4889 39.8098 33.0263C39.2724 33.5637 38.5435 33.8656 37.7835 33.8656Z" fill="#5BBD70"/>
<path d="M50.5749 31.5815C50.5749 30.0528 51.7219 21.8397 37.9676 14.1982C36.7155 15.7379 35.3072 17.1437 33.7652 18.3929C33.9589 18.5867 36.2491 19.9216 36.4389 20.1115C45.0356 24.5057 44.8438 30.6186 44.8438 31.1901V31.7714C44.8438 32.3526 44.4563 36.929 36.4389 41.5131C26.1237 47.6259 24.2133 52.7836 24.0234 53.7387L29.7546 55.2674V55.4612C30.3002 54.2958 31.0805 53.2557 32.0466 52.4057L41.4067 57.7377C41.8813 57.9784 42.4034 58.1107 42.9354 58.1252C43.451 58.1286 43.9572 57.9871 44.3964 57.7168C44.8355 57.4466 45.1899 57.0584 45.4193 56.5965C45.6132 56.2593 45.7374 55.8866 45.7846 55.5005C45.8319 55.1143 45.8011 54.7226 45.6941 54.3486C45.5871 53.9746 45.4062 53.6259 45.1619 53.3231C44.9177 53.0203 44.6152 52.7696 44.2723 52.5859L36.8226 48.3835C37.5778 47.7643 38.4133 47.25 39.3064 46.8548C50.0034 40.3603 50.5749 33.2923 50.5749 31.5815Z" fill="#5BBD70"/>
<path d="M11.4255 30.4188C11.4255 31.9475 10.2785 40.1606 24.0328 47.8021C25.2845 46.2597 26.6929 44.8513 28.2353 43.5996C28.0415 43.4059 25.7514 42.0709 25.5615 41.8811C16.9551 37.4946 17.147 31.3876 17.147 30.8063V30.2251C17.147 29.6438 17.5345 25.0674 25.5518 20.4833C35.8671 14.3705 37.7775 9.21287 37.9673 8.25768L32.2362 6.729V6.53525C31.6906 7.70059 30.9103 8.74077 29.9441 9.59068L20.586 4.26256C20.1114 4.02193 19.5893 3.88959 19.0573 3.87506C18.5417 3.8717 18.0355 4.01321 17.5963 4.28348C17.1572 4.55374 16.8028 4.9419 16.5735 5.40375C16.3795 5.74097 16.2553 6.1137 16.2081 6.49984C16.1608 6.88598 16.1916 7.27766 16.2986 7.65168C16.4056 8.0257 16.5865 8.37443 16.8308 8.67722C17.075 8.98 17.3775 9.23067 17.7205 9.41437L25.1701 13.6168C24.4149 14.236 23.5794 14.7503 22.6863 15.1455C11.7975 21.64 11.2318 28.708 11.4255 30.4188Z" fill="#5BBD70"/>
</svg>
