<svg width="25" height="25" viewBox="0 0 25 25" fill="none" xmlns="http://www.w3.org/2000/svg">
<circle cx="12.5" cy="12.5" r="12.5" fill="#5BBD70"/>
<path d="M12.6097 10.6657C11.1948 10.6657 10.0401 11.7146 10.0401 13C10.0401 14.2854 11.1948 15.3343 12.6097 15.3343C14.0245 15.3343 15.1792 14.2854 15.1792 13C15.1792 11.7146 14.0245 10.6657 12.6097 10.6657ZM20.3163 13C20.3163 12.0333 20.326 11.0754 20.2662 10.1105C20.2065 8.98979 19.925 7.99512 19.0229 7.17556C18.1188 6.35426 17.0259 6.10034 15.7922 6.04605C14.7281 5.99176 13.6737 6.00052 12.6116 6.00052C11.5475 6.00052 10.4931 5.99176 9.43099 6.04605C8.1973 6.10034 7.1024 6.35601 6.20027 7.17556C5.29621 7.99687 5.0167 8.98979 4.95694 10.1105C4.89719 11.0772 4.90682 12.0351 4.90682 13C4.90682 13.9649 4.89719 14.9246 4.95694 15.8895C5.0167 17.0102 5.29813 18.0049 6.20027 18.8244C7.10433 19.6457 8.1973 19.8997 9.43099 19.9539C10.495 20.0082 11.5495 19.9995 12.6116 19.9995C13.6756 19.9995 14.7301 20.0082 15.7922 19.9539C17.0259 19.8997 18.1208 19.644 19.0229 18.8244C19.927 18.0031 20.2065 17.0102 20.2662 15.8895C20.3279 14.9246 20.3163 13.9667 20.3163 13ZM12.6097 16.5917C10.4218 16.5917 8.65608 14.9876 8.65608 13C8.65608 11.0124 10.4218 9.40832 12.6097 9.40832C14.7975 9.40832 16.5632 11.0124 16.5632 13C16.5632 14.9876 14.7975 16.5917 12.6097 16.5917ZM16.7252 10.1C16.2143 10.1 15.8018 9.72529 15.8018 9.26122C15.8018 8.79716 16.2143 8.42241 16.7252 8.42241C17.236 8.42241 17.6485 8.79716 17.6485 9.26122C17.6487 9.37142 17.6249 9.48056 17.5785 9.58239C17.5322 9.68422 17.4642 9.77675 17.3784 9.85467C17.2926 9.93258 17.1908 9.99437 17.0787 10.0365C16.9666 10.0786 16.8465 10.1002 16.7252 10.1Z" fill="white"/>
</svg>
