<svg width="23" height="23" viewBox="0 0 23 23" fill="none" xmlns="http://www.w3.org/2000/svg">
<path d="M11.4969 7.66503C9.38527 7.66503 7.66201 9.38832 7.66201 11.5C7.66201 13.6117 9.38527 15.335 11.4969 15.335C13.6085 15.335 15.3318 13.6117 15.3318 11.5C15.3318 9.38832 13.6085 7.66503 11.4969 7.66503ZM22.9987 11.5C22.9987 9.91193 23.0131 8.33824 22.9239 6.75304C22.8347 4.9118 22.4147 3.27769 21.0683 1.93128C19.7191 0.581998 18.0879 0.164841 16.2467 0.0756562C14.6586 -0.013529 13.085 0.00085573 11.4998 0.00085573C9.91174 0.00085573 8.33808 -0.013529 6.75292 0.0756562C4.91171 0.164841 3.27763 0.584875 1.93125 1.93128C0.581988 3.28057 0.164838 4.9118 0.0756548 6.75304C-0.0135288 8.34112 0.000855714 9.9148 0.000855714 11.5C0.000855714 13.0852 -0.0135288 14.6618 0.0756548 16.247C0.164838 18.0882 0.584864 19.7223 1.93125 21.0687C3.28051 22.418 4.91171 22.8352 6.75292 22.9243C8.34096 23.0135 9.91462 22.9991 11.4998 22.9991C13.0878 22.9991 14.6615 23.0135 16.2467 22.9243C18.0879 22.8352 19.7219 22.4151 21.0683 21.0687C22.4176 19.7194 22.8347 18.0882 22.9239 16.247C23.016 14.6618 22.9987 13.0881 22.9987 11.5ZM11.4969 17.4006C8.23164 17.4006 5.59641 14.7653 5.59641 11.5C5.59641 8.23467 8.23164 5.59939 11.4969 5.59939C14.7622 5.59939 17.3974 8.23467 17.3974 11.5C17.3974 14.7653 14.7622 17.4006 11.4969 17.4006ZM17.6391 6.73578C16.8767 6.73578 16.261 6.12012 16.261 5.35773C16.261 4.59534 16.8767 3.97967 17.6391 3.97967C18.4014 3.97967 19.0171 4.59534 19.0171 5.35773C19.0173 5.53876 18.9818 5.71806 18.9127 5.88535C18.8435 6.05265 18.742 6.20466 18.614 6.33266C18.486 6.46067 18.334 6.56217 18.1667 6.63135C17.9994 6.70052 17.8201 6.73601 17.6391 6.73578Z" fill="#5BBD70"/>
</svg>
