<svg width="25" height="25" viewBox="0 0 25 25" fill="none" xmlns="http://www.w3.org/2000/svg">
<circle cx="12.5" cy="12.5" r="12.5" fill="#5BBD70"/>
<path d="M8.11359 9.49818C8.86884 9.49818 9.48109 8.88593 9.48109 8.13068C9.48109 7.37543 8.86884 6.76318 8.11359 6.76318C7.35834 6.76318 6.74609 7.37543 6.74609 8.13068C6.74609 8.88593 7.35834 9.49818 8.11359 9.49818Z" fill="white"/>
<path d="M10.7723 10.5344V18.1213H13.128V14.3694C13.128 13.3794 13.3142 12.4207 14.5417 12.4207C15.7523 12.4207 15.7673 13.5525 15.7673 14.4319V18.1219H18.1242V13.9613C18.1242 11.9175 17.6842 10.3469 15.2955 10.3469C14.1486 10.3469 13.3798 10.9763 13.0655 11.5719H13.0336V10.5344H10.7723ZM6.93359 10.5344H9.29297V18.1213H6.93359V10.5344Z" fill="white"/>
</svg>
