<svg width="23" height="23" viewBox="0 0 23 23" fill="none" xmlns="http://www.w3.org/2000/svg">
<path d="M21.9238 0.172012H1.08008C0.578809 0.172012 0.173828 0.576993 0.173828 1.07826V21.922C0.173828 22.4233 0.578809 22.8283 1.08008 22.8283H21.9238C22.4251 22.8283 22.8301 22.4233 22.8301 21.922V1.07826C22.8301 0.576993 22.4251 0.172012 21.9238 0.172012ZM6.89424 19.478H3.53262V8.66527H6.89424V19.478ZM5.21484 7.18695C4.82948 7.18695 4.45277 7.07268 4.13235 6.85858C3.81193 6.64449 3.5622 6.34018 3.41472 5.98415C3.26725 5.62812 3.22866 5.23635 3.30385 4.8584C3.37903 4.48044 3.5646 4.13326 3.83709 3.86076C4.10958 3.58827 4.45676 3.4027 4.83472 3.32752C5.21268 3.25234 5.60445 3.29092 5.96048 3.43839C6.31651 3.58587 6.62081 3.8356 6.83491 4.15602C7.04901 4.47644 7.16328 4.85315 7.16328 5.23852C7.16045 6.31469 6.28818 7.18695 5.21484 7.18695ZM19.4798 19.478H16.121V14.2189C16.121 12.9643 16.0983 11.3529 14.3736 11.3529C12.6263 11.3529 12.3572 12.7179 12.3572 14.1283V19.478H9.00127V8.66527H12.2241V10.1436H12.2694C12.7169 9.29399 13.8129 8.39623 15.4498 8.39623C18.8539 8.39623 19.4798 10.6364 19.4798 13.5477V19.478Z" fill="#5BBD70"/>
</svg>
