<svg width="26" height="21" viewBox="0 0 26 21" fill="none" xmlns="http://www.w3.org/2000/svg">
<path d="M18.7564 0C20.4401 0 22.0597 0.618333 23.2512 1.72783C24.444 2.835 25.1107 4.32833 25.1107 5.89167V15.1083C25.1107 18.3633 22.2606 21 18.7564 21H6.353C2.84881 21 0 18.3633 0 15.1083V5.89167C0 2.63667 2.83625 0 6.353 0H18.7564ZM20.1764 6.06667C19.9128 6.05383 19.6617 6.13667 19.4721 6.3L13.8109 10.5C13.0827 11.0612 12.0393 11.0612 11.2998 10.5L5.6499 6.3C5.25943 6.03167 4.71955 6.06667 4.39437 6.38167C4.05537 6.69667 4.01771 7.19833 4.30523 7.54833L4.4697 7.7L10.1824 11.8417C10.8855 12.355 11.738 12.635 12.6307 12.635C13.5208 12.635 14.3884 12.355 15.0903 11.8417L20.754 7.63L20.8544 7.53667C21.1545 7.19833 21.1545 6.70833 20.8406 6.37C20.6661 6.19617 20.4263 6.09 20.1764 6.06667Z" fill="#5BBD70"/>
</svg>
