<svg width="28" height="28" viewBox="0 0 28 28" fill="none" xmlns="http://www.w3.org/2000/svg">
<path d="M24.9265 16.0106L24.2309 10.3968C24.1978 10.1292 24.0069 9.90773 23.7464 9.83646C23.4858 9.7652 23.2083 9.85658 23.0427 10.069L21.8131 11.6463L21.2874 11.2365C15.1893 6.48295 6.39247 7.57287 1.63894 13.6709L0.819227 14.7225C0.592985 15.0127 0.644919 15.4319 0.93515 15.6581L3.03828 17.2975C3.32851 17.5238 3.74768 17.4718 3.97392 17.1816L4.79363 16.13C8.18889 11.7745 14.4726 10.9959 18.8282 14.3912L19.354 14.801L18.1244 16.3784C17.9588 16.5908 17.9371 16.8832 18.0707 17.1175C18.2034 17.3528 18.4647 17.4838 18.7323 17.4507L24.3461 16.7551C24.7118 16.7089 24.9709 16.3766 24.9265 16.0106Z" fill="#5BBD70"/>
</svg>
