<svg width="80" height="75" viewBox="0 0 80 75" fill="none" xmlns="http://www.w3.org/2000/svg">
<path d="M70.2459 32.5276C70.0953 32.5276 69.9411 32.5356 69.7818 32.5473C65.7017 32.874 66.7842 37.2322 66.7234 38.6857C66.6481 39.7475 66.4338 40.5886 65.7097 41.6285C64.8531 42.6523 63.6541 44.3082 63.085 46.0313C62.8178 46.8417 62.6889 47.6762 62.8098 48.4603C62.7643 48.4944 62.7269 48.5384 62.7005 48.589C62.4514 48.852 62.2661 49.1758 62.0626 49.4074C61.8707 49.6011 61.5956 49.6668 61.2929 49.7962C60.9917 49.9284 60.6557 50.0585 60.4595 50.4619C60.3726 50.6453 60.327 50.8426 60.3314 51.0487C60.3314 51.2387 60.3582 51.4367 60.3842 51.5697C60.4414 51.9578 60.4972 52.2778 60.4219 52.5139C60.1808 53.1752 60.1547 53.6283 60.3205 53.96C60.4892 54.2874 60.8368 54.4168 61.2249 54.5468C62.0097 54.7405 63.069 54.6791 63.9068 55.1285C64.7995 55.5852 65.709 55.7833 66.433 55.5896C66.6828 55.5331 66.9169 55.4212 67.1184 55.2619C67.32 55.1026 67.4838 54.9 67.598 54.6689C68.1635 54.6652 68.7855 54.4058 69.7782 54.3415C70.453 54.2838 71.298 54.6038 72.2668 54.5351C72.2929 54.6689 72.3269 54.7288 72.3797 54.8625V54.8662C72.7563 55.6232 73.4542 55.966 74.2015 55.909C74.9436 55.8483 75.7358 55.3879 76.3766 54.6345C76.9877 53.8921 78.0021 53.5793 78.6733 53.173C79.0092 52.9779 79.2808 52.7163 79.2996 52.3392C79.322 51.9512 79.1077 51.5478 78.6132 50.9997V50.904L78.6096 50.9003C78.4437 50.7067 78.3684 50.3793 78.2816 49.9993C78.1983 49.6069 78.1078 49.2342 77.8066 48.9792C77.7458 48.9258 77.6857 48.9141 77.6219 48.8498C77.5684 48.8118 77.5055 48.7895 77.4402 48.7855C77.8551 47.5403 77.6929 46.3039 77.27 45.188C76.7574 43.8142 75.856 42.6157 75.1732 41.7936C74.4035 40.8151 73.6497 39.8871 73.6649 38.5132C73.691 36.4152 73.8945 32.5378 70.2445 32.5298L70.2459 32.5276ZM70.7549 35.846H70.7702C70.9736 35.846 71.1503 35.9074 71.332 36.0367C71.5167 36.169 71.6528 36.3604 71.7541 36.5577C71.8562 36.8091 71.9098 37.0028 71.9163 37.2614C71.9163 37.2432 71.92 37.2235 71.92 37.2052V37.3075C71.92 37.2994 71.9163 37.2929 71.9163 37.2848L71.9127 37.2614C71.9127 37.4982 71.8642 37.7343 71.7701 37.9506C71.7253 38.0737 71.6544 38.1854 71.5623 38.2779C71.5362 38.2633 71.5094 38.248 71.479 38.2363C71.3776 38.1902 71.2871 38.1756 71.2039 38.1077C71.1353 38.08 71.0646 38.0582 70.9924 38.0426C71.0381 37.9864 71.1322 37.9133 71.1698 37.849C71.2191 37.7269 71.2451 37.5939 71.2531 37.4573V37.4376C71.2552 37.3056 71.2346 37.1744 71.1923 37.0495C71.151 36.9202 71.0989 36.8544 71.0192 36.7258C70.936 36.6608 70.857 36.5965 70.7586 36.5965H70.7441C70.6536 36.5965 70.5739 36.6228 70.4914 36.7258C70.4008 36.8159 70.3334 36.9271 70.2952 37.0495C70.2426 37.1723 70.2131 37.3039 70.2083 37.4376V37.4573C70.2083 37.5443 70.2162 37.6319 70.2264 37.7196C70.0381 37.6553 69.8043 37.5859 69.6384 37.5216C69.6294 37.4574 69.6243 37.3928 69.6232 37.3279V37.3082C69.6159 37.0509 69.6651 36.7951 69.7673 36.5592C69.8463 36.3458 69.9896 36.1624 70.1822 36.0411C70.3473 35.9161 70.5471 35.8474 70.7549 35.8474V35.846ZM67.8964 35.9037H67.9304C68.0665 35.9037 68.191 35.9497 68.3156 36.033C68.4582 36.1587 68.5726 36.3144 68.6479 36.4854C68.7348 36.6805 68.7833 36.8778 68.7985 37.1365V37.1401C68.8022 37.2695 68.8022 37.3389 68.7949 37.3996V37.4792L68.716 37.5019C68.569 37.5552 68.4524 37.6312 68.3344 37.697C68.346 37.6093 68.346 37.5216 68.338 37.4376V37.4222C68.3272 37.2936 68.3004 37.2286 68.2591 37.0985C68.2282 36.9985 68.1724 36.9081 68.0969 36.8361C68.0495 36.7935 67.9873 36.7714 67.9239 36.7748H67.9007C67.8334 36.7784 67.7762 36.8128 67.724 36.9041C67.6602 36.9782 67.6196 37.0698 67.6075 37.1672C67.5807 37.2695 67.5727 37.3798 67.5843 37.4909V37.5019C67.5959 37.6356 67.6183 37.7006 67.6632 37.8292C67.6923 37.9284 67.7471 38.0179 67.8218 38.0887C67.8334 38.1004 67.8413 38.1084 67.8558 38.1113C67.7885 38.1691 67.7429 38.1807 67.6871 38.2451C67.6487 38.2721 67.6082 38.3064 67.5589 38.3145C67.4585 38.1926 67.37 38.0612 67.2947 37.9221C67.2023 37.7172 67.1511 37.4959 67.1441 37.2709C67.1294 37.0511 67.155 36.8304 67.2194 36.6198C67.2766 36.4298 67.3671 36.2508 67.4945 36.0988C67.619 35.9695 67.7436 35.9052 67.8978 35.9052L67.8964 35.9037ZM69.2199 37.5669C69.5407 37.5669 69.9259 37.6276 70.3929 37.9549C70.676 38.1501 70.899 38.218 71.4117 38.408C71.6607 38.5417 71.8034 38.6711 71.8751 38.8004V38.6711C71.9095 38.7417 71.9286 38.8188 71.9312 38.8974C71.9338 38.976 71.9199 39.0543 71.8903 39.1271C71.7694 39.4318 71.3921 39.7555 70.8614 39.9492V39.9528C70.6043 40.0822 70.3784 40.2766 70.1142 40.4059C69.847 40.5353 69.5443 40.6916 69.1374 40.6653C68.99 40.6719 68.8428 40.6498 68.7037 40.6003C68.5964 40.5428 68.4931 40.4781 68.3945 40.4066C68.2063 40.2773 68.0441 40.0829 67.803 39.9536V39.9499H67.7993C67.4105 39.7102 67.2034 39.4508 67.1354 39.2572C67.0717 38.9948 67.1317 38.8012 67.3243 38.6718C67.5387 38.5425 67.6893 38.4087 67.7877 38.3444C67.8891 38.2721 67.9275 38.2451 67.9579 38.2187H67.9615V38.2151C68.1237 38.0171 68.3793 37.7584 68.7725 37.6283C68.9035 37.5939 69.0556 37.5676 69.2207 37.5676L69.2199 37.5669ZM71.92 39.6518C72.2675 41.0336 73.0785 43.0396 73.5991 44.01C73.8742 44.531 74.4245 45.6272 74.662 46.9564C74.8126 46.9528 74.9784 46.9747 75.1565 47.0207C75.7821 45.3919 74.6323 43.641 74.1081 43.1536C73.893 42.9599 73.8822 42.8298 73.9872 42.8298C74.557 43.3472 75.3028 44.3608 75.5743 45.5132C75.6988 46.0342 75.73 46.5911 75.5975 47.1421C75.6612 47.1684 75.7256 47.2027 75.7937 47.2064C76.7893 47.7289 77.1585 48.1205 76.9811 48.7059V48.6642C76.9254 48.6613 76.8646 48.6642 76.8081 48.6642H76.7929C76.9406 48.2082 76.6162 47.8575 75.764 47.4694C74.8814 47.0814 74.1761 47.1421 74.0552 47.9225C74.0467 47.9666 74.0418 48.0113 74.0407 48.0562C73.9719 48.0789 73.9046 48.1052 73.8373 48.1169C73.4224 48.38 73.1994 48.7716 73.0719 49.2744C72.9474 49.7954 72.9098 50.4005 72.8757 51.0977C72.8526 51.425 72.7099 51.9154 72.5658 52.4138C71.1177 53.4602 69.1077 53.9133 67.404 52.7411C67.2939 52.5511 67.1658 52.3758 67.0152 52.2201C66.9429 52.0992 66.8528 51.99 66.748 51.8964C66.9247 51.8964 67.076 51.8664 67.1969 51.8313C67.335 51.7642 67.4436 51.6478 67.5017 51.5047C67.6038 51.2453 67.5017 50.8265 67.1658 50.3698C66.8349 49.9175 66.2687 49.403 65.4425 48.89C64.8321 48.502 64.4889 48.0416 64.3304 47.5308C64.1718 47.0098 64.1942 46.4727 64.3152 45.929C64.5526 44.8862 65.1601 43.8704 65.549 43.2339C65.6503 43.1733 65.583 43.3677 65.1529 44.1861C64.7713 44.9169 64.0516 46.6181 65.0349 47.9386C65.0727 46.9742 65.2849 46.0249 65.6612 45.1376C66.2035 43.8931 67.3432 41.7242 67.4337 40.004C67.4793 40.042 67.6415 40.1377 67.7124 40.202C67.9202 40.3314 68.0781 40.5258 68.2823 40.6551C68.4857 40.8487 68.7421 40.9825 69.1273 40.9825C69.1649 40.9861 69.1989 40.9861 69.2322 40.9861C69.6283 40.9861 69.9382 40.8568 70.1938 40.7267C70.4726 40.593 70.6999 40.3993 70.9099 40.335H70.9135C71.3624 40.2057 71.7208 39.9426 71.9207 39.6532L71.92 39.6518ZM74.032 48.38C74.0697 48.9653 74.3644 49.5938 74.8843 49.7224C75.4498 49.8517 76.2679 49.3986 76.6111 48.977L76.8146 48.969C77.1194 48.9609 77.3729 48.977 77.6321 49.2284L77.6357 49.232C77.8355 49.4257 77.9304 49.7494 78.0129 50.0848C78.0962 50.4765 78.1599 50.8455 78.409 51.1232C78.876 51.637 79.031 52.006 79.0237 52.2347C79.0085 52.489 78.842 52.6184 78.5408 52.8127C77.9333 53.2052 76.8552 53.5055 76.1687 54.3437C75.5721 55.0628 74.8452 55.4544 74.2029 55.5041C73.5621 55.5575 73.0075 55.3105 72.6831 54.6294L72.6795 54.6258C72.476 54.237 72.5629 53.6283 72.7324 52.9808C72.9025 52.3297 73.1472 51.6684 73.1813 51.1313C73.2153 50.4349 73.253 49.8298 73.3659 49.3606C73.4825 48.9076 73.6642 48.5838 73.9886 48.4055L74.0299 48.3822L74.032 48.38ZM63.5896 48.4289H63.6012C63.6541 48.4289 63.7033 48.4326 63.7518 48.4443C64.1139 48.4976 64.4346 48.768 64.7402 49.175L65.6185 50.7966L65.6221 50.8002C65.856 51.3176 66.3498 51.835 66.7683 52.3955C67.1875 52.9772 67.5119 53.4982 67.4742 53.925V53.933C67.417 54.6557 67.0101 55.0474 66.3881 55.1928C65.7654 55.3222 64.9205 55.1928 64.0762 54.7398C63.1414 54.2187 62.0286 54.283 61.3161 54.153C60.962 54.0887 60.7282 53.9549 60.6181 53.7613C60.5131 53.5676 60.5088 53.1745 60.739 52.5621V52.5592C60.852 52.2318 60.7701 51.8248 60.7129 51.4667C60.6601 51.0779 60.634 50.7769 60.7542 50.5525C60.9084 50.2251 61.1387 50.1645 61.4211 50.0315C61.7042 49.9021 62.0402 49.8378 62.3037 49.5748H62.3073V49.5711C62.5528 49.3131 62.7381 48.9894 62.9525 48.7563C63.1342 48.5583 63.3181 48.4289 63.5896 48.4289ZM70.503 39.5875C70.0837 39.7811 69.5899 40.1085 69.0657 40.1085C68.5415 40.1085 68.1302 39.8505 67.8326 39.6554C67.682 39.5232 67.5611 39.3931 67.4706 39.328C67.312 39.1994 67.3309 39.0014 67.3989 39.0014C67.5039 39.016 67.5235 39.1337 67.5908 39.1994C67.6857 39.2637 67.7986 39.3931 67.9376 39.5232C68.2207 39.7168 68.598 39.9791 69.065 39.9791C69.5335 39.9791 70.0837 39.7168 70.4154 39.5232C70.6036 39.3938 70.8447 39.1994 71.041 39.0701C71.1916 38.9364 71.185 38.807 71.3081 38.807C71.4327 38.8224 71.3429 38.9364 71.1691 39.1307C70.9917 39.2645 70.7202 39.4581 70.5022 39.5875H70.503ZM69.4582 38.0426V38.0244C69.4545 38.0046 69.469 37.9827 69.4878 37.9747C69.5552 37.933 69.6609 37.9476 69.7369 37.9783C69.797 37.9783 69.8911 38.0426 69.8839 38.1106C69.8759 38.1566 69.8006 38.1756 69.7514 38.1756C69.6993 38.1756 69.6609 38.134 69.616 38.1077C69.5668 38.0923 69.4719 38.0996 69.4574 38.0426H69.4582ZM68.926 38.0426C68.9064 38.1004 68.8159 38.0923 68.7674 38.1077C68.7218 38.134 68.6841 38.1756 68.6313 38.1756C68.582 38.1756 68.5031 38.1559 68.4988 38.1077C68.4923 38.0426 68.582 37.9783 68.6429 37.9783C68.7218 37.9469 68.8195 37.9323 68.8948 37.9747C68.91 37.9827 68.9296 38.0046 68.9216 38.0244V38.0426H68.926Z" fill="#5BBD70"/>
<path d="M51.0753 16.1733C50.5607 17.3203 50.3146 17.8331 49.6537 18.8467C48.7303 20.2621 47.4266 22.0285 45.8148 22.0406C44.3811 22.0527 44.011 21.099 42.0653 21.1146C40.1196 21.1241 39.7143 22.0579 38.2789 22.0432C36.6671 22.0285 35.433 20.4371 34.5088 19.0242C31.9245 15.061 31.6517 10.4161 33.2489 7.9446C34.3788 6.19212 36.1671 5.16299 37.846 5.16299C39.5559 5.16299 40.6308 6.10896 42.0447 6.10896C43.4164 6.10896 44.252 5.16039 46.2295 5.16039C47.7252 5.16039 49.3069 5.98075 50.4368 7.39624C46.7399 9.43545 47.3405 14.7509 51.0753 16.1733ZM44.7287 3.57858C45.4482 2.64907 45.9937 1.33753 45.7958 0C44.622 0.0805634 43.2494 0.835088 42.4474 1.81224C41.7211 2.70191 41.1187 4.02384 41.3536 5.30246C42.6341 5.34404 43.9594 4.57566 44.7287 3.57858Z" fill="#5BBD70"/>
<path d="M0 37.4594L7.86303 36.3731V43.9936H0V37.4594ZM8.83018 36.2497L19.3552 34.6777V43.8696H8.83018V36.2497ZM0 44.841H7.86303V52.4615L0 51.371V44.841ZM8.83018 44.841H19.3552V54.0329L8.95357 52.5806L8.83018 44.841Z" fill="#5BBD70"/>
<path d="M17.4916 30.4501C19.567 24.5628 23.7196 19.6353 29.1701 16.5925" stroke="#5BBD70" stroke-width="4" stroke-linecap="round"/>
<path d="M66.0123 30.4501C63.937 24.5628 59.7843 19.6353 54.3338 16.5925" stroke="#5BBD70" stroke-width="4" stroke-linecap="round"/>
<path d="M28.6709 59.735C32.6833 61.9505 37.2164 63.0495 41.7979 62.9174C46.3794 62.7854 50.8417 61.4271 54.7198 58.9842" stroke="#5BBD70" stroke-width="4" stroke-linecap="round"/>
</svg>
