<svg width="125" height="182" viewBox="0 0 125 182" fill="none" xmlns="http://www.w3.org/2000/svg">
<path d="M42.3516 87.6959H78.6361L124.002 0H87.7179L42.3516 87.6959Z" fill="#006CA2"/>
<path d="M65.0063 43.8457L46.8711 78.9241L51.412 87.6937H78.6147L83.1556 78.9241L65.0063 43.8457Z" fill="#2F2F2F"/>
<path d="M81.507 108.863H45.2082V87.6906H81.4928V108.863H81.507ZM81.507 78.6231H45.2082C40.199 78.6231 36.1406 82.6815 36.1406 87.6906V108.863C36.1406 113.872 40.199 117.93 45.2082 117.93H81.4928C86.5019 117.93 90.5603 113.872 90.5603 108.863V87.6906C90.5633 86.5002 90.3313 85.3209 89.8776 84.2204C89.4238 83.1198 88.7573 82.1197 87.9162 81.2772C87.0751 80.4348 86.076 79.7667 84.9762 79.3113C83.8763 78.8558 82.6974 78.6219 81.507 78.6231Z" fill="#CECED2"/>
<path d="M108.737 136.085C108.737 161.145 88.4303 181.451 63.3702 181.451C38.3244 181.451 18.0039 161.145 18.0039 136.085C18.0039 111.025 38.3102 90.7188 63.3702 90.7188C88.4303 90.7188 108.737 111.039 108.737 136.085Z" fill="#CECED2"/>
<path d="M32.9504 125.045C32.3544 125.045 31.7585 124.932 31.1908 124.676C29.0055 123.74 27.9555 121.2 28.8069 118.986C28.8211 118.958 28.8353 118.915 28.8353 118.887C28.8494 118.816 28.8494 118.83 28.892 118.773C30.8764 114.056 33.9529 109.877 37.8681 106.581C41.7833 103.285 46.4253 100.966 51.412 99.8149C51.9087 99.7014 52.4337 99.9426 52.6607 100.411C52.8878 100.879 52.7601 101.433 52.3486 101.759C45.7217 107.024 40.4287 114.119 37.0514 122.278C37.0514 122.292 37.0372 122.307 37.0372 122.307C37.0372 122.321 37.0372 122.321 37.0231 122.335C36.5548 123.428 35.6892 124.265 34.5823 124.705C34.0715 124.946 33.5039 125.045 32.9504 125.045Z" fill="white"/>
<path d="M81.6509 87.6959H45.3521L0 0H36.2845L81.6509 87.6959Z" fill="#006CA2"/>
<path d="M76.8184 147.413H61.5922C63.9904 145.951 68.1765 143.042 72.9445 138.275C77.4144 133.819 78.9044 125.688 73.5688 120.338C70.4754 117.259 66.9562 115.684 63.1106 115.684C54.6106 115.684 47.5155 123.204 47.2175 123.517C47.033 123.715 46.9904 124.027 47.1465 124.269L50.9779 130.527C51.0772 130.683 51.2475 130.796 51.432 130.81C51.6165 130.839 51.8009 130.782 51.9429 130.64C51.9854 130.598 56.6114 126.312 60.6699 126.312C62.3018 126.312 63.5789 126.993 64.5722 128.412C65.381 129.562 65.6223 130.839 65.3101 132.286C63.7634 139.211 50.0981 147.044 49.9562 147.129C49.8625 147.185 49.7845 147.264 49.7299 147.358C49.6752 147.453 49.6457 147.559 49.644 147.668V155.856C49.644 156.211 49.9278 156.481 50.2684 156.481H76.8326C77.1732 156.481 77.457 156.197 77.457 155.856V148.023C77.4493 147.859 77.3787 147.704 77.2598 147.59C77.1409 147.477 76.9829 147.413 76.8184 147.413Z" fill="#77A2AD"/>
</svg>
