<svg width="19" height="22" viewBox="0 0 19 22" fill="none" xmlns="http://www.w3.org/2000/svg">
<path d="M8.29644 0.351642L0.351281 8.29662C0.124486 8.52341 -5.75868e-07 8.82569 -5.61779e-07 9.14799C-5.47675e-07 9.47066 0.124665 9.77275 0.351281 9.99955L1.0728 10.7209C1.29924 10.9475 1.6017 11.0724 1.92418 11.0724C2.24649 11.0724 2.55914 10.9475 2.78557 10.7209L7.43076 6.0859L7.43076 20.8115C7.43076 21.4754 7.95053 22 8.61464 22L9.63468 22C10.2988 22 10.871 21.4754 10.871 20.8115L10.871 6.03332L15.5421 10.7207C15.7689 10.9473 16.0631 11.0722 16.3856 11.0722C16.7077 11.0722 17.0062 10.9473 17.2329 10.7207L17.9521 9.99937C18.1788 9.77257 18.3024 9.47048 18.3024 9.14781C18.3024 8.82551 18.1772 8.52323 17.9504 8.29644L10.0055 0.351463C9.77794 0.124132 9.47424 -0.000891146 9.1514 3.41468e-06C8.82748 -0.000711827 8.5236 0.124132 8.29644 0.351642Z" fill="#5BBD70"/>
</svg>
