<svg width="25" height="25" viewBox="0 0 25 25" fill="none" xmlns="http://www.w3.org/2000/svg">
<circle cx="12.5" cy="12.5" r="12.5" fill="#5BBD70"/>
<path d="M19.5016 8.97344C19.0234 9.17969 18.5031 9.32813 17.9672 9.38594C18.5236 9.05537 18.9403 8.53313 19.1391 7.91719C18.6169 8.2278 18.0449 8.44561 17.4484 8.56094C17.1991 8.29442 16.8976 8.0821 16.5627 7.93721C16.2277 7.79231 15.8665 7.71795 15.5016 7.71876C14.025 7.71876 12.8375 8.91563 12.8375 10.3844C12.8375 10.5906 12.8625 10.7969 12.9031 10.9953C10.6922 10.8797 8.72031 9.82344 7.40938 8.20626C7.17051 8.61425 7.04533 9.0788 7.04687 9.55157C7.04687 10.4766 7.51719 11.2922 8.23437 11.7719C7.81173 11.7552 7.39897 11.6391 7.02969 11.4328V11.4656C7.02969 12.7609 7.94531 13.8344 9.16563 14.0813C8.9365 14.1408 8.70079 14.1712 8.46406 14.1719C8.29063 14.1719 8.12656 14.1547 7.96094 14.1313C8.29844 15.1875 9.28125 15.9547 10.4516 15.9797C9.53594 16.6969 8.38906 17.1188 7.14375 17.1188C6.92031 17.1188 6.71406 17.1109 6.5 17.0859C7.68125 17.8438 9.08281 18.2813 10.5922 18.2813C15.4922 18.2813 18.1734 14.2219 18.1734 10.6984C18.1734 10.5828 18.1734 10.4672 18.1656 10.3516C18.6844 9.97188 19.1391 9.50157 19.5016 8.97344Z" fill="white"/>
</svg>
