<svg width="25" height="21" viewBox="0 0 25 21" fill="none" xmlns="http://www.w3.org/2000/svg">
<path d="M24.2821 3.20179C23.4155 3.57562 22.4725 3.84466 21.5011 3.94945C22.5096 3.35029 23.2648 2.40372 23.6251 1.28734C22.6787 1.85031 21.642 2.24508 20.5608 2.45413C20.109 1.97106 19.5625 1.58623 18.9554 1.32361C18.3483 1.06099 17.6936 0.926209 17.0321 0.92767C14.3559 0.92767 12.2035 3.09701 12.2035 5.75912C12.2035 6.13294 12.2488 6.50677 12.3225 6.86644C8.31514 6.65687 4.74111 4.74242 2.36504 1.81126C1.93209 2.55075 1.70521 3.39274 1.70801 4.24964C1.70801 5.9262 2.56045 7.40453 3.86035 8.27396C3.0943 8.24379 2.34619 8.03323 1.67686 7.65941V7.71888C1.67686 10.0666 3.33643 12.0122 5.54824 12.4597C5.13295 12.5676 4.70573 12.6228 4.27666 12.624C3.9623 12.624 3.66494 12.5928 3.36475 12.5503C3.97646 14.4648 5.75781 15.8553 7.879 15.9006C6.21943 17.2005 4.14072 17.9652 1.88359 17.9652C1.47861 17.9652 1.10479 17.951 0.716797 17.9057C2.85781 19.2792 5.39814 20.0722 8.13389 20.0722C17.0151 20.0722 21.8749 12.7146 21.8749 6.32835C21.8749 6.11878 21.8749 5.90921 21.8607 5.69964C22.801 5.01146 23.6251 4.15902 24.2821 3.20179Z" fill="#5BBD70"/>
</svg>
