<svg width="40" height="33" viewBox="0 0 40 33" fill="none" xmlns="http://www.w3.org/2000/svg">
<path fill-rule="evenodd" clip-rule="evenodd" d="M37.5 33C37.5 33 40 33 40 30.25C40 27.5 37.5 19.25 27.5 19.25C17.5 19.25 15 27.5 15 30.25C15 33 17.5 33 17.5 33H37.5ZM17.5125 30.404V30.3985V30.404ZM17.555 30.25H37.445C37.4567 30.2485 37.4684 30.2467 37.48 30.2445L37.5 30.239C37.495 29.513 37.0825 27.4065 35.6 25.509C34.22 23.7297 31.795 22 27.5 22C23.2075 22 20.7825 23.7325 19.4 25.509C17.9175 27.4065 17.5025 29.5158 17.5 30.239C17.5183 30.2429 17.5366 30.2465 17.555 30.25ZM37.4875 30.404V30.3985V30.404ZM27.5 13.75C28.8261 13.75 30.0979 13.1705 31.0355 12.1391C31.9732 11.1076 32.5 9.70869 32.5 8.25C32.5 6.79131 31.9732 5.39236 31.0355 4.36091C30.0979 3.32946 28.8261 2.75 27.5 2.75C26.1739 2.75 24.9021 3.32946 23.9645 4.36091C23.0268 5.39236 22.5 6.79131 22.5 8.25C22.5 9.70869 23.0268 11.1076 23.9645 12.1391C24.9021 13.1705 26.1739 13.75 27.5 13.75ZM35 8.25C35 9.33341 34.806 10.4062 34.4291 11.4071C34.0522 12.4081 33.4997 13.3175 32.8033 14.0836C32.1069 14.8497 31.2801 15.4574 30.3701 15.872C29.4602 16.2866 28.4849 16.5 27.5 16.5C26.5151 16.5 25.5398 16.2866 24.6299 15.872C23.7199 15.4574 22.8931 14.8497 22.1967 14.0836C21.5003 13.3175 20.9478 12.4081 20.5709 11.4071C20.194 10.4062 20 9.33341 20 8.25C20 6.06196 20.7902 3.96354 22.1967 2.41637C23.6032 0.869194 25.5109 0 27.5 0C29.4891 0 31.3968 0.869194 32.8033 2.41637C34.2098 3.96354 35 6.06196 35 8.25ZM17.34 20.02C16.34 19.6736 15.3091 19.4459 14.265 19.3407C13.6783 19.2794 13.0893 19.2491 12.5 19.25C2.5 19.25 0 27.5 0 30.25C0 32.0843 0.8325 33 2.5 33H13.04C12.6694 32.1415 12.4846 31.2002 12.5 30.25C12.5 27.4725 13.4425 24.6345 15.225 22.264C15.8325 21.4555 16.54 20.6992 17.34 20.02ZM12.3 22C8.13 22.055 5.7625 23.76 4.4 25.509C2.9075 27.4175 2.5 29.5322 2.5 30.25H10C10 27.3762 10.8075 24.5135 12.3 22ZM3.75 9.625C3.75 7.43696 4.54018 5.33854 5.9467 3.79137C7.35322 2.24419 9.26088 1.375 11.25 1.375C13.2391 1.375 15.1468 2.24419 16.5533 3.79137C17.9598 5.33854 18.75 7.43696 18.75 9.625C18.75 11.813 17.9598 13.9115 16.5533 15.4586C15.1468 17.0058 13.2391 17.875 11.25 17.875C9.26088 17.875 7.35322 17.0058 5.9467 15.4586C4.54018 13.9115 3.75 11.813 3.75 9.625ZM11.25 4.125C9.92392 4.125 8.65215 4.70446 7.71447 5.73591C6.77678 6.76736 6.25 8.16631 6.25 9.625C6.25 11.0837 6.77678 12.4826 7.71447 13.5141C8.65215 14.5455 9.92392 15.125 11.25 15.125C12.5761 15.125 13.8479 14.5455 14.7855 13.5141C15.7232 12.4826 16.25 11.0837 16.25 9.625C16.25 8.16631 15.7232 6.76736 14.7855 5.73591C13.8479 4.70446 12.5761 4.125 11.25 4.125Z" fill="black"/>
</svg>
