<svg width="36" height="35" viewBox="0 0 36 35" fill="none" xmlns="http://www.w3.org/2000/svg">
<path d="M31.25 27.5C30.6932 27.5025 30.1441 27.6307 29.6438 27.875L24.2688 22.5H20V25H23.2325L27.8763 29.6438C27.6318 30.1441 27.5032 30.6931 27.5 31.25C27.5 31.9917 27.7199 32.7167 28.132 33.3334C28.544 33.9501 29.1297 34.4307 29.8149 34.7146C30.5002 34.9984 31.2542 35.0726 31.9816 34.9279C32.709 34.7833 33.3772 34.4261 33.9017 33.9017C34.4261 33.3772 34.7833 32.709 34.9279 31.9816C35.0726 31.2542 34.9984 30.5002 34.7146 29.8149C34.4307 29.1297 33.9501 28.544 33.3334 28.132C32.7167 27.7199 31.9917 27.5 31.25 27.5ZM31.25 32.5C31.0028 32.5 30.7611 32.4267 30.5555 32.2893C30.35 32.152 30.1898 31.9568 30.0952 31.7284C30.0005 31.4999 29.9758 31.2486 30.024 31.0061C30.0723 30.7637 30.1913 30.5409 30.3661 30.3661C30.5409 30.1913 30.7637 30.0723 31.0061 30.024C31.2486 29.9758 31.4999 30.0005 31.7284 30.0952C31.9568 30.1898 32.152 30.35 32.2893 30.5555C32.4267 30.7611 32.5 31.0028 32.5 31.25C32.5 31.5815 32.3683 31.8995 32.1339 32.1339C31.8995 32.3683 31.5815 32.5 31.25 32.5Z" fill="black"/>
<path d="M31.25 13.75C30.477 13.7523 29.7236 13.9938 29.0933 14.4415C28.4631 14.8891 27.9868 15.5209 27.73 16.25H20V18.75H27.73C27.9603 19.3965 28.3638 19.9672 28.8965 20.3998C29.4292 20.8325 30.0706 21.1104 30.7506 21.2031C31.4305 21.2959 32.1229 21.2 32.752 20.9259C33.3812 20.6518 33.9229 20.21 34.3179 19.6489C34.713 19.0877 34.9462 18.4288 34.9921 17.7441C35.0379 17.0593 34.8947 16.3752 34.5781 15.7663C34.2614 15.1575 33.7835 14.6474 33.1966 14.2918C32.6096 13.9362 31.9363 13.7488 31.25 13.75ZM31.25 18.75C31.0028 18.75 30.7611 18.6767 30.5555 18.5393C30.35 18.402 30.1898 18.2068 30.0952 17.9784C30.0005 17.75 29.9758 17.4986 30.024 17.2561C30.0723 17.0137 30.1913 16.7909 30.3661 16.6161C30.5409 16.4413 30.7637 16.3223 31.0061 16.274C31.2486 16.2258 31.4999 16.2505 31.7284 16.3452C31.9568 16.4398 32.152 16.6 32.2893 16.8055C32.4267 17.0111 32.5 17.2528 32.5 17.5C32.5 17.8315 32.3683 18.1495 32.1339 18.3839C31.8995 18.6183 31.5815 18.75 31.25 18.75Z" fill="black"/>
<path d="M31.25 1.57223e-06C30.2557 0.000994341 29.3025 0.396401 28.5994 1.09945C27.8964 1.80249 27.501 2.75574 27.5 3.75C27.5043 4.34882 27.6535 4.93769 27.935 5.46625L23.245 10H20V12.5H24.255L29.755 7.185C30.2659 7.40779 30.8201 7.51385 31.3771 7.49546C31.9342 7.47706 32.4802 7.33468 32.9753 7.07867C33.4704 6.82266 33.9022 6.45947 34.2392 6.01553C34.5762 5.5716 34.81 5.05809 34.9236 4.51241C35.0371 3.96672 35.0275 3.40258 34.8956 2.86105C34.7636 2.31953 34.5125 1.81425 34.1606 1.382C33.8087 0.949757 33.3649 0.601418 32.8614 0.362347C32.3579 0.123277 31.8074 -0.000508869 31.25 1.57223e-06ZM31.25 5C31.0028 5 30.7611 4.92669 30.5555 4.78934C30.35 4.65199 30.1898 4.45676 30.0951 4.22836C30.0005 3.99995 29.9758 3.74861 30.024 3.50614C30.0722 3.26366 30.1913 3.04093 30.3661 2.86612C30.5409 2.6913 30.7637 2.57225 31.0061 2.52402C31.2486 2.47579 31.4999 2.50054 31.7284 2.59515C31.9568 2.68976 32.152 2.84998 32.2893 3.05554C32.4267 3.2611 32.5 3.50277 32.5 3.75C32.5 4.08152 32.3683 4.39946 32.1339 4.63388C31.8995 4.86831 31.5815 5 31.25 5Z" fill="black"/>
<path d="M20 5H22.5V2.5H20C19.2876 2.50238 18.5841 2.65786 17.9371 2.95592C17.2901 3.25397 16.7147 3.68763 16.25 4.2275C15.7853 3.68763 15.2099 3.25397 14.5629 2.95592C13.9159 2.65786 13.2124 2.50238 12.5 2.5H11.25C8.26733 2.50331 5.40777 3.68964 3.2987 5.7987C1.18964 7.90777 0.00330857 10.7673 0 13.75V21.25C0.00330857 24.2327 1.18964 27.0922 3.2987 29.2013C5.40777 31.3104 8.26733 32.4967 11.25 32.5H12.5C13.2124 32.4976 13.9159 32.3421 14.5629 32.0441C15.2099 31.746 15.7853 31.3124 16.25 30.7725C16.7147 31.3124 17.2901 31.746 17.9371 32.0441C18.5841 32.3421 19.2876 32.4976 20 32.5H22.5V30H20C19.3372 29.9993 18.7017 29.7357 18.233 29.267C17.7643 28.7983 17.5007 28.1628 17.5 27.5V7.5C17.5007 6.83716 17.7643 6.20166 18.233 5.73296C18.7017 5.26427 19.3372 5.00066 20 5ZM12.5 30H11.25C9.14805 29.9962 7.11759 29.2365 5.52948 27.8595C3.94136 26.4825 2.90156 24.5802 2.6 22.5H5V20H2.5V15H6.25C7.24426 14.999 8.19751 14.6036 8.90055 13.9006C9.6036 13.1975 9.99901 12.2443 10 11.25V8.75H7.5V11.25C7.5 11.5815 7.3683 11.8995 7.13388 12.1339C6.89946 12.3683 6.58152 12.5 6.25 12.5H2.6C2.90156 10.4198 3.94136 8.51748 5.52948 7.1405C7.11759 5.76351 9.14805 5.00376 11.25 5H12.5C13.1628 5.00066 13.7983 5.26427 14.267 5.73296C14.7357 6.20166 14.9993 6.83716 15 7.5V12.5H12.5V15H15V20H12.5C11.5057 20.001 10.5525 20.3964 9.84945 21.0994C9.1464 21.8025 8.75099 22.7557 8.75 23.75V26.25H11.25V23.75C11.25 23.4185 11.3817 23.1005 11.6161 22.8661C11.8505 22.6317 12.1685 22.5 12.5 22.5H15V27.5C14.9993 28.1628 14.7357 28.7983 14.267 29.267C13.7983 29.7357 13.1628 29.9993 12.5 30Z" fill="black"/>
</svg>
